<svg xmlns="http://www.w3.org/2000/svg" viewBox="0 0 1067 1067" width="100%" height="100%" fill="#000000">
  <path d="M0 0 C0.642 -0.001 1.283 -0.001 1.944 -0.002 C13.644 0.017 24.918 0.866 36.375 3.25 C36.574 3.291 36.574 3.291 37.58 3.5 C65.88 9.466 92.135 22.298 113.207 42.163 C114.361 43.237 115.534 44.282 116.719 45.32 C154.866 78.771 179.532 124.144 193.688 191.938 C193.769 192.464 193.851 192.99 193.935 193.532 C195.933 206.65 196.584 219.702 196.615 232.952 C196.62 234.528 196.634 236.103 196.656 237.678 C196.792 247.32 196.387 255.971 193.375 265.25 C190.075 265.25 186.775 265.25 183.375 265.25 C183.285 264.227 183.195 263.204 183.103 262.149 C180.249 229.916 177.013 197.287 167.375 166.25 C167.244 165.826 167.112 165.402 166.977 164.966 C157.96 136.082 144.32 109.865 123.586 87.648 C121.884 85.822 120.295 83.96 118.75 82 C108.546 69.664 93.25 60.632 79.261 53.252 C77.524 52.335 75.811 51.379 74.098 50.418 C57.986 41.62 39.471 36.428 21.427 33.427 C20.426 33.259 19.427 33.079 18.428 32.899 C8.405 31.146 -1.668 31.046 -11.814 31.005 C-12.856 31 -13.898 30.992 -14.94 30.984 C-27.123 30.9 -38.877 31.837 -50.438 35.875 C-50.809 36.001 -51.181 36.128 -51.564 36.258 C-74.993 44.279 -96.971 59.219 -113.688 77.473 C-114.625 78.25 -114.625 78.25 -116.625 78.25 C-116.861 78.816 -117.097 79.382 -117.34 79.965 C-118.749 82.774 -120.926 84.68 -123.188 86.812 C-128.199 91.698 -132.616 96.87 -136.933 102.371 C-137.687 103.329 -138.445 104.282 -139.204 105.236 C-146.915 114.928 -154.288 124.767 -161.165 135.067 C-162.468 137.018 -163.781 138.961 -165.097 140.903 C-186.061 171.875 -204.868 204.205 -222.065 237.406 C-224.226 241.576 -226.409 245.728 -228.657 249.851 C-231.963 255.934 -235.022 262.102 -237.982 268.36 C-243.521 280.056 -249.262 291.646 -255.071 303.21 C-256.354 305.766 -257.634 308.323 -258.915 310.881 C-262.421 317.882 -265.932 324.881 -269.443 331.88 C-272.671 338.317 -275.899 344.755 -279.124 351.194 C-280.384 353.711 -281.645 356.227 -282.909 358.742 C-288.658 370.188 -294.312 381.671 -299.805 393.242 C-335.307 467.998 -335.307 467.998 -355.913 477.867 C-363.494 481.287 -370.15 482.455 -378.425 482.49 C-379.792 482.5 -381.158 482.531 -382.525 482.562 C-389.686 482.65 -397.35 481.83 -403.359 477.559 C-404.051 476.956 -404.723 476.332 -405.375 475.688 C-405.74 475.339 -406.105 474.991 -406.481 474.633 C-415.641 465.5 -418.84 453.318 -420.252 440.772 C-420.462 438.287 -420.545 435.804 -420.6 433.31 C-420.627 432.15 -420.665 430.991 -420.703 429.831 C-421.679 398.002 -417.118 366.42 -413.15 334.922 C-410.918 317.199 -408.8 299.48 -407.188 281.688 C-407.168 281.473 -407.168 281.473 -407.069 280.389 C-406.578 275.014 -406.123 269.636 -405.705 264.255 C-405.629 263.297 -405.548 262.339 -405.468 261.381 C-404.379 248.345 -404.404 235.282 -404.385 222.209 C-404.38 219.627 -404.367 217.046 -404.344 214.465 C-404.228 201.089 -404.355 187.872 -406 174.582 C-406.062 174.083 -406.123 173.585 -406.187 173.071 C-409.811 144.559 -418.522 112.548 -439.979 91.95 C-454.838 78.815 -474.669 71.764 -494.343 71.081 C-519.693 70.428 -542.808 75.927 -562.996 91.816 C-566.043 94.26 -568.951 96.852 -571.817 99.504 C-572.638 100.262 -573.463 101.014 -574.29 101.766 C-598.614 124.027 -611.215 156.375 -615.628 188.598 C-616.032 191.81 -616.348 195.025 -616.625 198.25 C-616.681 198.881 -616.738 199.513 -616.796 200.164 C-620.453 242.853 -616.483 289.538 -594.625 327.25 C-594.452 327.549 -594.28 327.849 -594.102 328.157 C-585.954 342.225 -576.147 356.749 -560.289 362.52 C-557.106 363.591 -553.892 364.474 -550.625 365.25 C-550.275 365.335 -549.925 365.42 -549.564 365.507 C-544.248 366.718 -538.563 366.428 -533.145 366.287 C-532.18 366.264 -531.215 366.248 -530.25 366.244 C-516.015 366.139 -502.695 358.642 -491.785 350.027 C-483.485 343.526 -483.485 343.526 -479.25 343.625 C-476.145 343.97 -473.396 344.831 -470.625 346.25 C-472.173 349.912 -474.386 352.397 -477.188 355.188 C-477.42 355.42 -477.653 355.652 -477.893 355.891 C-492.781 370.624 -510.58 382.084 -530.625 388.25 C-531.208 388.429 -531.79 388.609 -532.391 388.793 C-552.623 394.635 -576.779 392.75 -596.003 384.45 C-622.006 372.852 -638.554 351.277 -650.764 326.245 C-651.578 324.563 -652.38 322.877 -653.179 321.188 C-653.596 320.311 -654.02 319.436 -654.445 318.562 C-674.082 277.83 -679.005 224.763 -667.656 165.673 C-660.058 136.216 -645.21 109.48 -625.021 86.831 C-623.844 85.506 -622.698 84.157 -621.558 82.8 C-599.857 57.075 -564.944 42.115 -532.43 36.25 C-519.853 34.073 -507.265 33.033 -494.5 33.062 C-493.96 33.063 -493.42 33.064 -492.864 33.065 C-458.969 33.192 -425.427 41.75 -399.125 63.95 C-370.68 88.615 -357.11 127.278 -350.375 163.375 C-350.298 163.778 -350.221 164.182 -350.141 164.598 C-346.819 182.253 -346.247 200.086 -346.312 218 C-346.315 219.083 -346.317 220.166 -346.319 221.249 C-346.366 238.697 -347.067 255.833 -349.35 273.149 C-349.593 274.995 -349.827 276.841 -350.06 278.688 C-355.255 319.793 -364.523 359.817 -374.782 399.91 C-380.844 423.608 -380.844 423.608 -383.043 434.535 C-383.121 434.92 -383.2 435.304 -383.281 435.7 C-384.457 441.518 -385.112 447.339 -385.625 453.25 C-383.599 452.878 -381.581 452.476 -379.562 452.062 C-379.282 452.012 -379.282 452.012 -377.861 451.756 C-372.697 450.664 -368.179 448.457 -364.855 444.283 C-362.92 441.543 -361.313 438.617 -359.688 435.688 C-359.135 434.718 -358.58 433.75 -358.025 432.782 C-356.835 430.703 -355.654 428.619 -354.48 426.532 C-352.598 423.192 -350.678 419.874 -348.754 416.559 C-339.348 400.317 -330.333 383.877 -321.625 367.25 C-321.539 367.086 -321.539 367.086 -321.103 366.254 C-310.298 345.623 -299.895 324.815 -289.796 303.831 C-287.311 298.668 -284.814 293.512 -282.309 288.359 C-282.13 287.992 -281.952 287.626 -281.768 287.248 C-280.87 285.4 -279.971 283.552 -279.072 281.705 C-277.304 278.069 -275.536 274.433 -273.77 270.797 C-273.597 270.442 -273.424 270.086 -273.247 269.72 C-270.844 264.774 -268.454 259.822 -266.073 254.866 C-259.573 241.336 -253.056 227.838 -245.91 214.633 C-244.746 212.48 -243.598 210.319 -242.452 208.157 C-230.853 186.289 -218.446 164.798 -204.625 144.25 C-204.399 143.913 -204.172 143.576 -203.939 143.228 C-197.764 134.033 -191.394 125.021 -184.625 116.25 C-184.204 115.701 -183.782 115.152 -183.361 114.604 C-177.742 107.292 -171.934 100.181 -165.891 93.217 C-163.085 89.98 -160.375 86.699 -157.75 83.312 C-129.65 47.533 -89.065 18.606 -28.349 2.758 C-26.15 2.302 -23.948 1.87 -21.74 1.458 C-20.788 1.281 -19.838 1.094 -18.888 0.906 C-12.669 -0.173 -6.291 0.006 0 0 Z" transform="translate(768.625, 206.75)"/>
  <path d="M0 0 C19.912 -0.998 38.714 1.27 56.783 10.063 C56.949 10.143 56.949 10.143 57.791 10.549 C67.481 15.239 75.412 20.146 81.783 29.063 C82.154 29.575 82.526 30.086 82.909 30.613 C98.394 52.157 106.41 80.536 104.783 107.063 C104.763 107.4 104.743 107.737 104.723 108.084 C103.075 135.972 96.509 163.137 83.783 188.063 C83.51 188.614 83.237 189.164 82.956 189.732 C78.437 198.836 72.991 207.048 66.783 215.063 C66.553 215.36 66.324 215.657 66.088 215.963 C49.933 236.793 28.419 249.387 3.783 258.063 C3.427 258.189 3.072 258.315 2.706 258.445 C-20.489 266.626 -45.378 268.861 -69.678 271.452 C-70.152 271.503 -70.626 271.554 -71.114 271.606 C-73.362 271.847 -75.61 272.085 -77.859 272.315 C-78.661 272.4 -79.464 272.485 -80.266 272.57 C-80.625 272.605 -80.983 272.641 -81.352 272.677 C-83.423 272.901 -85.267 273.333 -87.217 274.063 C-86.815 274.399 -86.413 274.736 -85.999 275.082 C-77.473 282.236 -69.26 289.395 -62.217 298.063 C-61.806 298.569 -61.395 299.075 -60.972 299.596 C-52.537 310.11 -45.862 321.75 -39.022 333.33 C-27.212 353.312 -14.799 372.968 -0.217 391.063 C-0.018 391.314 -0.018 391.314 0.989 392.581 C17.587 413.373 36.895 431.12 60.783 443.063 C61.083 443.214 61.384 443.364 61.694 443.519 C74.506 449.869 87.528 452.969 101.658 454.313 C102.09 454.354 102.523 454.396 102.968 454.438 C112.603 455.326 122.093 455.244 131.72 454.313 C132.169 454.27 132.617 454.227 133.079 454.182 C161.415 451.375 188.201 441.545 212.94 427.626 C218.718 424.411 223.509 422.725 230.158 422.938 C230.703 422.947 231.248 422.956 231.81 422.966 C233.135 422.989 234.458 423.021 235.783 423.063 C231.365 444.056 216.483 461.068 200.118 474.298 C197.776 476.067 195.32 477.59 192.783 479.063 C192.523 479.218 192.523 479.218 191.209 480.001 C171.27 491.745 148.03 499.129 124.794 499.266 C124.05 499.273 123.306 499.28 122.562 499.288 C120.198 499.307 117.834 499.312 115.47 499.313 C115.067 499.313 114.664 499.314 114.248 499.314 C101.881 499.316 89.835 499.131 77.783 496.063 C77.394 495.966 77.006 495.869 76.606 495.769 C36.778 485.734 -0.102 463.486 -37.791 429.388 C-39.221 428.06 -40.672 426.758 -42.132 425.462 C-53.402 415.415 -63.64 404.387 -73.014 392.553 C-74.103 391.205 -75.212 389.881 -76.335 388.562 C-94.939 366.719 -108.991 341.714 -123.17 316.898 C-135.311 295.65 -135.311 295.65 -141.712 285.358 C-142.285 284.435 -142.852 283.508 -143.415 282.579 C-147.38 276.045 -152.626 268.327 -159.985 265.348 C-160.188 265.301 -160.188 265.301 -161.217 265.063 C-161.382 265.595 -161.547 266.126 -161.717 266.674 C-165.973 280.288 -170.997 293.231 -177.217 306.063 C-177.498 306.643 -177.779 307.222 -178.068 307.82 C-186.619 325.464 -195.519 342.858 -205.458 359.769 C-206.214 361.057 -206.965 362.346 -207.715 363.636 C-222.507 389.043 -239.088 413.391 -258.144 435.794 C-259.146 436.979 -260.141 438.169 -261.135 439.361 C-268.208 447.83 -275.651 455.817 -283.481 463.588 C-284.989 465.084 -286.488 466.59 -287.985 468.098 C-294.716 474.873 -301.547 481.259 -309.073 487.159 C-310.686 488.433 -312.26 489.753 -313.835 491.075 C-337.47 510.679 -364.347 525.433 -392.217 538.063 C-392.655 538.262 -393.093 538.461 -393.544 538.665 C-402.394 542.654 -411.343 545.945 -421.217 544.063 C-422.939 543.501 -424.581 542.836 -426.217 542.063 C-425.756 539.454 -424.747 537.415 -422.743 535.672 C-422.127 535.186 -421.503 534.71 -420.874 534.243 C-420.526 533.984 -420.179 533.726 -419.821 533.459 C-415.482 530.369 -410.677 528.248 -405.843 526.054 C-390.354 518.996 -376.565 510.614 -363.217 500.063 C-362.997 499.892 -362.997 499.892 -361.882 499.023 C-345.153 485.97 -330.774 470.923 -317.967 454.049 C-317.209 453.052 -316.448 452.058 -315.686 451.064 C-306.711 439.314 -299.19 426.911 -291.915 414.053 C-290.28 411.165 -288.617 408.295 -286.948 405.426 C-281.35 395.788 -275.996 386.092 -271.174 376.041 C-270.377 374.385 -269.558 372.741 -268.731 371.099 C-256.599 346.927 -247.565 321.133 -238.011 295.869 C-233.351 283.549 -228.576 271.293 -223.49 259.141 C-217.791 245.483 -217.791 245.483 -218.092 239.626 C-218.134 238.45 -218.175 237.274 -218.217 236.063 C-222.177 233.753 -226.137 231.443 -230.217 229.063 C-229.227 224.113 -228.237 219.163 -227.217 214.063 C-225.258 214.208 -223.299 214.352 -221.28 214.501 C-220.683 214.544 -220.086 214.587 -219.472 214.631 C-214.706 214.991 -209.964 215.514 -205.217 216.063 C-205.044 215.711 -204.87 215.359 -204.691 214.996 C-196.341 198.094 -187.942 181.252 -178.739 164.794 C-177.387 162.373 -176.052 159.942 -174.721 157.509 C-153.777 119.271 -128.803 82.032 -88.217 44.063 C-87.97 43.855 -87.723 43.647 -87.469 43.433 C-63.618 23.367 -32.006 1.661 0 0 Z M-32.217 35.063 C-32.601 35.393 -32.984 35.723 -33.379 36.063 C-36.394 38.658 -39.322 41.336 -42.217 44.063 C-42.691 44.508 -43.164 44.953 -43.652 45.411 C-51.424 52.754 -58.199 60.619 -64.572 69.197 C-65.198 70.036 -65.827 70.873 -66.458 71.709 C-80.136 89.889 -91.189 109.95 -102.428 129.679 C-103.338 131.274 -104.252 132.866 -105.168 134.457 C-120.077 160.402 -132.939 187.406 -144.716 214.898 C-145.293 216.243 -145.875 217.586 -146.463 218.927 C-152.42 232.545 -152.42 232.545 -151.217 239.063 C-151.129 239.629 -151.04 240.195 -150.948 240.779 C-150.422 243.017 -149.904 244.531 -148.056 245.964 C-146.594 246.716 -145.148 247.279 -143.592 247.813 C-143.052 248.017 -142.511 248.22 -141.955 248.429 C-118.832 256.928 -92.228 253.461 -69.217 246.063 C-68.918 245.969 -68.918 245.969 -67.4 245.491 C-47.995 239.238 -29.827 229.123 -14.217 216.063 C-13.73 215.66 -13.243 215.257 -12.74 214.841 C-9.779 212.366 -6.956 209.782 -4.217 207.063 C-3.819 206.669 -3.421 206.274 -3.01 205.868 C24.614 178.058 40.287 134.862 43.691 96.316 C44.001 92.093 44.027 87.858 44.033 83.626 C44.034 83.105 44.035 82.585 44.036 82.049 C44.013 64.765 41.926 47.001 30.715 33.138 C28.368 30.431 25.723 28.104 22.783 26.063 C22.606 25.934 22.606 25.934 21.71 25.28 C18.193 22.913 14.818 22.353 10.658 21.876 C10.037 21.794 9.417 21.712 8.779 21.628 C-6.573 19.663 -20.765 24.96 -32.217 35.063 Z" transform="translate(735.2174682617188, 314.93682861328125)"/>
</svg>
